<?xml version="1.0" encoding="UTF-8"?>
<!--
	SPDX-FileCopyrightText: 2023 Eduardo Javier Alvarado Aarón <eduardo.javier.alvarado.aaron@gmail.com>
	
	SPDX-License-Identifier: CC-BY-SA-4.0
-->
<svg height="128px" viewBox="0 0 128 128" width="128px" xmlns="http://www.w3.org/2000/svg" xmlns:xlink="http://www.w3.org/1999/xlink">
	<linearGradient id="a" gradientUnits="userSpaceOnUse" x1="16" x2="112" y1="278" y2="278">
		<stop offset="0" stop-color="#9a9996"/>
		<stop offset="0.0416611" stop-color="#deddda"/>
		<stop offset="0.0833333" stop-color="#9a9996"/>
		<stop offset="0.916667" stop-color="#9a9996"/>
		<stop offset="0.958333" stop-color="#deddda"/>
		<stop offset="1" stop-color="#9a9996"/>
	</linearGradient>
	<clipPath id="b">
		<rect height="128" width="128"/>
	</clipPath>
	<clipPath id="c">
		<rect height="128" width="128"/>
	</clipPath>
	<filter id="d" height="100%" width="100%" x="0%" y="0%">
		<feColorMatrix in="SourceGraphic" type="matrix" values="0 0 0 0 1 0 0 0 0 1 0 0 0 0 1 0 0 0 1 0"/>
	</filter>
	<mask id="e">
		<g clip-path="url(#c)" filter="url(#d)">
			<g clip-path="url(#b)">
				<path d="m 24 96 h 80 c 4.417969 0 8 3.582031 8 8 v 6 c 0 4.417969 -3.582031 8 -8 8 h -80 c -4.417969 0 -8 -3.582031 -8 -8 v -6 c 0 -4.417969 3.582031 -8 8 -8 z m 0 0" fill="url(#a)"/>
				<path d="m 24 20 h 80 c 4.417969 0 8 3.582031 8 8 v 76 c 0 4.417969 -3.582031 8 -8 8 h -80 c -4.417969 0 -8 -3.582031 -8 -8 v -76 c 0 -4.417969 3.582031 -8 8 -8 z m 0 0" fill="#77767b"/>
				<path d="m 24 10 c -4.417969 0 -8 3.582031 -8 8 v 10 h 96 v -10 c 0 -4.417969 -3.582031 -8 -8 -8 z m 0 0" fill="#c0bfbc"/>
				<path d="m 107 19 c 0 2.210938 -1.789062 4 -4 4 s -4 -1.789062 -4 -4 s 1.789062 -4 4 -4 s 4 1.789062 4 4 z m 0 0" fill="#77767b"/>
				<path d="m 16 30 h 32 v 40 h -32 z m 0 0" fill="#33d17a"/>
				<path d="m 16 30 h 16 v 16 h -16 z m 0 0" fill="#8ff0a4"/>
				<path d="m 32 38 h 16 v 16 h -16 z m 0 0" fill="#57e389"/>
				<path d="m 16 46 h 16 v 16 h -16 z m 0 0" fill="#2ec27e"/>
				<path d="m 32 54 h 16 v 16 h -16 z m 0 0" fill="#26a269"/>
				<path d="m 48 30 h 32 v 40 h -32 z m 0 0" fill="#3584e4"/>
				<path d="m 64 30 h 16 v 16 h -16 z m 0 0" fill="#99c1f1"/>
				<path d="m 48 38 h 16 v 16 h -16 z m 0 0" fill="#62a0ea"/>
				<path d="m 64 46 h 16 v 16 h -16 z m 0 0" fill="#1c71d8"/>
				<path d="m 48 54 h 16 v 16 h -16 z m 0 0" fill="#1a5fb4"/>
				<path d="m 80 30 h 32 v 40 h -32 z m 0 0" fill="#9141ac"/>
				<path d="m 80 30 h 16 v 16 h -16 z m 0 0" fill="#dc8add"/>
				<path d="m 96 38 h 16 v 16 h -16 z m 0 0" fill="#c061cb"/>
				<path d="m 80 46 h 16 v 16 h -16 z m 0 0" fill="#613583"/>
				<path d="m 96 54 h 16 v 16 h -16 z m 0 0" fill="#813d9c"/>
				<path d="m 24 70 h 16 c 4.417969 0 8 3.582031 8 8 v 24 c 0 4.417969 -3.582031 8 -8 8 h -16 c -4.417969 0 -8 -3.582031 -8 -8 v -24 c 0 -4.417969 3.582031 -8 8 -8 z m 0 0" fill="#ffd300"/>
				<path d="m 16 70 h 8 v 8 h -8 z m 0 0" fill="#ffd300"/>
				<path d="m 40 102 h 8 v 8 h -8 z m 0 0" fill="#ffd300"/>
				<path d="m 32 70 h 16 v 16 h -16 z m 0 0" fill="#e5a50a"/>
				<path d="m 16 78 h 16 v 16 h -16 z m 0 0" fill="#f5c211"/>
				<path d="m 32 86 h 16 v 16 h -16 z m 0 0" fill="#f8e45c"/>
				<path d="m 32 102 c 0 4.417969 -3.582031 8 -8 8 s -8 -3.582031 -8 -8 s 3.582031 -8 8 -8 s 8 3.582031 8 8 z m 0 0" fill="#f9f06b"/>
				<path d="m 16 94 h 16 v 8 h -16 z m 0 0" fill="#f9f06b"/>
				<path d="m 24 102 h 8 v 8 h -8 z m 0 0" fill="#f9f06b"/>
				<path d="m 48 70 h 32 v 40 h -32 z m 0 0" fill="#ff7800"/>
				<path d="m 48 70 h 16 v 16 h -16 z m 0 0" fill="#c64600"/>
				<path d="m 64 78 h 16 v 16 h -16 z m 0 0" fill="#e66100"/>
				<path d="m 48 86 h 16 v 16 h -16 z m 0 0" fill="#ffa348"/>
				<path d="m 64 94 h 16 v 16 h -16 z m 0 0" fill="#ffbe6f"/>
				<path d="m 88 70 h 16 c 4.417969 0 8 3.582031 8 8 v 24 c 0 4.417969 -3.582031 8 -8 8 h -16 c -4.417969 0 -8 -3.582031 -8 -8 v -24 c 0 -4.417969 3.582031 -8 8 -8 z m 0 0" fill="#e01b24"/>
				<path d="m 80 70 h 8 v 8 h -8 z m 0 0" fill="#e01b24"/>
				<path d="m 96 70 h 16 v 16 h -16 z m 0 0" fill="#a51d2d"/>
				<path d="m 80 78 h 16 v 16 h -16 z m 0 0" fill="#c01c28"/>
				<path d="m 96 86 h 16 v 16 h -16 z m 0 0" fill="#ed333b"/>
				<path d="m 80 94 h 16 v 16 h -16 z m 0 0" fill="#f66151"/>
			</g>
		</g>
	</mask>
	<mask id="f">
		<g filter="url(#d)">
			<rect fill-opacity="0.8" height="128" width="128"/>
		</g>
	</mask>
	<linearGradient id="g" gradientTransform="matrix(0 0.37 -0.98462 0 295.38501 -30.360001)" gradientUnits="userSpaceOnUse" x1="300" x2="428" y1="235" y2="235">
		<stop offset="0" stop-color="#f9f06b"/>
		<stop offset="1" stop-color="#f5c211"/>
	</linearGradient>
	<clipPath id="h">
		<rect height="128" width="128"/>
	</clipPath>
	<clipPath id="i">
		<rect height="128" width="128"/>
	</clipPath>
	<path d="m 24 96 h 80 c 4.417969 0 8 3.582031 8 8 v 6 c 0 4.417969 -3.582031 8 -8 8 h -80 c -4.417969 0 -8 -3.582031 -8 -8 v -6 c 0 -4.417969 3.582031 -8 8 -8 z m 0 0" fill="url(#a)"/>
	<path d="m 24 20 h 80 c 4.417969 0 8 3.582031 8 8 v 76 c 0 4.417969 -3.582031 8 -8 8 h -80 c -4.417969 0 -8 -3.582031 -8 -8 v -76 c 0 -4.417969 3.582031 -8 8 -8 z m 0 0" fill="#77767b"/>
	<path d="m 24 10 c -4.417969 0 -8 3.582031 -8 8 v 10 h 96 v -10 c 0 -4.417969 -3.582031 -8 -8 -8 z m 0 0" fill="#c0bfbc"/>
	<path d="m 107 19 c 0 2.210938 -1.789062 4 -4 4 s -4 -1.789062 -4 -4 s 1.789062 -4 4 -4 s 4 1.789062 4 4 z m 0 0" fill="#77767b"/>
	<path d="m 16 30 h 32 v 40 h -32 z m 0 0" fill="#33d17a"/>
	<path d="m 16 30 h 16 v 16 h -16 z m 0 0" fill="#8ff0a4"/>
	<path d="m 32 38 h 16 v 16 h -16 z m 0 0" fill="#57e389"/>
	<path d="m 16 46 h 16 v 16 h -16 z m 0 0" fill="#2ec27e"/>
	<path d="m 32 54 h 16 v 16 h -16 z m 0 0" fill="#26a269"/>
	<path d="m 48 30 h 32 v 40 h -32 z m 0 0" fill="#3584e4"/>
	<path d="m 64 30 h 16 v 16 h -16 z m 0 0" fill="#99c1f1"/>
	<path d="m 48 38 h 16 v 16 h -16 z m 0 0" fill="#62a0ea"/>
	<path d="m 64 46 h 16 v 16 h -16 z m 0 0" fill="#1c71d8"/>
	<path d="m 48 54 h 16 v 16 h -16 z m 0 0" fill="#1a5fb4"/>
	<path d="m 80 30 h 32 v 40 h -32 z m 0 0" fill="#9141ac"/>
	<path d="m 80 30 h 16 v 16 h -16 z m 0 0" fill="#dc8add"/>
	<path d="m 96 38 h 16 v 16 h -16 z m 0 0" fill="#c061cb"/>
	<path d="m 80 46 h 16 v 16 h -16 z m 0 0" fill="#613583"/>
	<path d="m 96 54 h 16 v 16 h -16 z m 0 0" fill="#813d9c"/>
	<g fill="#ffd300">
		<path d="m 24 70 h 16 c 4.417969 0 8 3.582031 8 8 v 24 c 0 4.417969 -3.582031 8 -8 8 h -16 c -4.417969 0 -8 -3.582031 -8 -8 v -24 c 0 -4.417969 3.582031 -8 8 -8 z m 0 0"/>
		<path d="m 16 70 h 8 v 8 h -8 z m 0 0"/>
		<path d="m 40 102 h 8 v 8 h -8 z m 0 0"/>
	</g>
	<path d="m 32 70 h 16 v 16 h -16 z m 0 0" fill="#e5a50a"/>
	<path d="m 16 78 h 16 v 16 h -16 z m 0 0" fill="#f5c211"/>
	<path d="m 32 86 h 16 v 16 h -16 z m 0 0" fill="#f8e45c"/>
	<path d="m 32 102 c 0 4.417969 -3.582031 8 -8 8 s -8 -3.582031 -8 -8 s 3.582031 -8 8 -8 s 8 3.582031 8 8 z m 0 0" fill="#f9f06b"/>
	<path d="m 16 94 h 16 v 8 h -16 z m 0 0" fill="#f9f06b"/>
	<path d="m 24 102 h 8 v 8 h -8 z m 0 0" fill="#f9f06b"/>
	<path d="m 48 70 h 32 v 40 h -32 z m 0 0" fill="#ff7800"/>
	<path d="m 48 70 h 16 v 16 h -16 z m 0 0" fill="#c64600"/>
	<path d="m 64 78 h 16 v 16 h -16 z m 0 0" fill="#e66100"/>
	<path d="m 48 86 h 16 v 16 h -16 z m 0 0" fill="#ffa348"/>
	<path d="m 64 94 h 16 v 16 h -16 z m 0 0" fill="#ffbe6f"/>
	<path d="m 88 70 h 16 c 4.417969 0 8 3.582031 8 8 v 24 c 0 4.417969 -3.582031 8 -8 8 h -16 c -4.417969 0 -8 -3.582031 -8 -8 v -24 c 0 -4.417969 3.582031 -8 8 -8 z m 0 0" fill="#e01b24"/>
	<path d="m 80 70 h 8 v 8 h -8 z m 0 0" fill="#e01b24"/>
	<path d="m 96 70 h 16 v 16 h -16 z m 0 0" fill="#a51d2d"/>
	<path d="m 80 78 h 16 v 16 h -16 z m 0 0" fill="#c01c28"/>
	<path d="m 96 86 h 16 v 16 h -16 z m 0 0" fill="#ed333b"/>
	<path d="m 80 94 h 16 v 16 h -16 z m 0 0" fill="#f66151"/>
	<g clip-path="url(#i)" mask="url(#e)">
		<g clip-path="url(#h)" mask="url(#f)">
			<path d="m 128 80.640625 v 47.359375 h -128 v -47.359375 z m 0 0" fill="url(#g)"/>
			<path d="m 13.308594 80.640625 l 47.355468 47.359375 h 21.214844 l -47.359375 -47.359375 z m 42.421875 0 l 47.363281 47.359375 h 21.214844 l -47.363282 -47.359375 z m 42.429687 0 l 29.839844 29.839844 v -21.210938 l -8.628906 -8.628906 z m -98.160156 7.90625 v 21.214844 l 18.238281 18.238281 h 21.214844 z m 0 0"/>
		</g>
	</g>
</svg>
